<?xml version="1.0" standalone="no"?>
<!DOCTYPE svg PUBLIC "-//W3C//DTD SVG 20010904//EN"
 "http://www.w3.org/TR/2001/REC-SVG-20010904/DTD/svg10.dtd">
<svg version="1.0" xmlns="http://www.w3.org/2000/svg"
 width="512.000000pt" height="512.000000pt" viewBox="0 0 512.000000 512.000000"
 preserveAspectRatio="xMidYMid meet">
<metadata>
Created by potrace 1.11, written by Peter Selinger 2001-2013
</metadata>
<g transform="translate(0.000000,512.000000) scale(0.100000,-0.100000)"
fill="#000000" stroke="none">
<path d="M203 5102 c-100 -35 -171 -115 -193 -216 -8 -36 -10 -710 -8 -2356
l3 -2305 21 -46 c31 -66 78 -114 142 -146 l57 -28 2335 0 2335 0 57 28 c64 32
111 80 142 146 l21 46 0 2335 0 2335 -28 57 c-32 64 -80 111 -146 142 l-46 21
-2320 2 c-2207 2 -2323 2 -2372 -15z m2189 -596 c58 -83 61 -109 53 -486 -4
-184 -8 -337 -9 -340 0 -3 87 -8 194 -12 347 -12 519 -42 677 -119 262 -128
373 -384 297 -683 -24 -93 -61 -155 -138 -232 -117 -117 -234 -186 -368 -220
-38 -9 -68 -19 -68 -23 0 -3 51 -32 113 -63 129 -65 222 -136 254 -193 34 -60
85 -221 158 -498 36 -136 72 -263 79 -282 40 -95 169 -99 267 -10 45 40 64 44
79 14 17 -30 -14 -75 -87 -125 -99 -68 -162 -88 -274 -89 -87 0 -101 3 -154
30 -46 24 -68 43 -101 92 -63 92 -103 214 -189 573 -70 292 -119 406 -196 457
-77 51 -136 66 -276 71 -73 2 -153 1 -178 -2 l-45 -7 2 -492 c2 -574 -6 -667
-98 -1142 -31 -164 -34 -173 -44 -154 -21 37 -100 488 -121 689 -13 126 -9
636 12 1413 13 507 7 698 -21 745 -11 17 -30 38 -43 47 -39 25 -167 34 -377
25 -223 -10 -200 -7 -200 -20 0 -16 244 -663 306 -811 31 -74 61 -147 67 -163
11 -27 10 -30 -42 -77 -181 -162 -435 -188 -650 -66 -67 37 -146 111 -138 129
84 197 267 675 323 846 41 124 42 154 9 194 -14 16 -25 36 -25 44 0 30 46 62
106 74 32 6 142 32 244 57 102 25 208 46 235 46 32 0 79 -12 130 -32 44 -17
84 -31 89 -31 9 0 1 305 -15 542 -9 137 -9 160 5 190 17 34 105 148 115 148 3
0 23 -24 43 -54z"/>
<path d="M2601 3580 c-67 -10 -98 -39 -119 -111 -13 -45 -16 -142 -20 -553
l-4 -498 109 6 c325 20 417 38 506 97 86 57 153 157 188 284 18 64 23 104 22
200 -2 320 -137 519 -383 565 -73 13 -241 19 -299 10z"/>
<path d="M1521 3353 c-25 -51 -321 -840 -321 -858 0 -3 143 -5 318 -3 356 3
368 6 357 61 -4 18 -41 124 -82 237 -41 113 -102 282 -135 375 -57 160 -92
245 -103 245 -3 0 -18 -26 -34 -57z"/>
</g>
</svg>
