<?xml version="1.0" encoding="UTF-8" standalone="no"?>
<svg
   xmlns:dc="http://purl.org/dc/elements/1.1/"
   xmlns:cc="http://creativecommons.org/ns#"
   xmlns:rdf="http://www.w3.org/1999/02/22-rdf-syntax-ns#"
   xmlns:svg="http://www.w3.org/2000/svg"
   xmlns="http://www.w3.org/2000/svg"
   version="1.1"
   id="svg4485"
   width="97.075653"
   height="136.34447"
   viewBox="0 0 97.075653 136.34447">
  <metadata
     id="metadata4491">
    <rdf:RDF>
      <cc:Work
         rdf:about="">
        <dc:format>image/svg+xml</dc:format>
        <dc:type
           rdf:resource="http://purl.org/dc/dcmitype/StillImage" />
        <dc:title></dc:title>
      </cc:Work>
    </rdf:RDF>
  </metadata>
  <defs
     id="defs4489" />
  <path
     style="fill:#c2af49;fill-opacity:1"
     d="M 38.360063,123.28648 C 36.083148,109.33508 36.051021,108.21429 36.990289,75.5 37.624238,53.41983 37.614123,41.224823 36.960619,39.726023 35.68943,36.810581 33.635597,36.343832 23.666993,36.704946 L 15.521986,37 21.491541,52.987362 c 3.283255,8.793048 6.384419,16.487242 6.891476,17.098208 0.96882,1.167356 -0.467092,2.746281 -5.071017,5.576076 C 17.33863,79.333168 8.8462009,78.670307 2.8028809,74.060845 7.6090456e-4,71.923565 -0.46079911,71.097222 0.37330089,69.711151 0.93966089,68.770018 4.0179209,61.02735 7.2138909,52.505222 12.262137,39.043974 12.825418,36.864688 11.505896,35.89983 c -2.3050951,-1.685523 -0.752571,-4.104718 2.979295,-4.642452 1.829745,-0.263652 6.204396,-1.259614 9.721447,-2.213248 5.659681,-1.534599 6.810285,-1.570608 10.011068,-0.313305 L 37.834137,30.1514 37.594741,20.0757 C 37.463073,14.534065 37.123493,9.1 36.840118,8 36.51871,6.7523613 37.271476,4.8714581 38.841193,3 l 2.516302,-3 1.905152,2.4801443 c 1.695,2.2065657 1.864971,3.8887559 1.540886,15.2499997 L 44.439267,30.5 h 7.252707 c 18.95244,0 29.749995,5.341519 32.662596,16.158092 1.194316,4.435353 0.497801,10.823379 -1.634595,14.991539 -2.084666,4.074861 -9.43456,9.856453 -14.13366,11.117853 l -4.225684,1.134319 5.225684,2.549098 c 2.891873,1.410661 6.151209,3.948883 7.298045,5.683383 1.139798,1.723856 3.30396,8.215757 4.809248,14.426447 1.505288,6.210689 3.176059,12.112759 3.712824,13.115719 1.318885,2.46436 6.118804,2.3504 8.426952,-0.20008 1.220906,-1.34908 2.164692,-1.69029 2.831359,-1.02363 C 99.02318,110.81118 90.712522,116.5 84.908713,116.5 76.563046,116.5 73.659331,112.29506 69.799136,94.619428 68.432159,88.360114 66.382167,81.731566 65.243597,79.889321 62.83319,75.989202 57.82891,74.22579 50.509609,74.697349 L 45.812,75 46.108849,92 c 0.24039,13.76667 -0.113923,19.47254 -1.862883,30 -1.187853,7.15 -2.47351,13.57892 -2.857017,14.28648 -0.383506,0.70756 -1.746504,-5.14244 -3.028886,-13 z M 65.532774,69.672571 C 72.087122,65.62176 74.833001,55.243885 71.962793,45.370717 69.49041,36.866018 64.321576,33.5 53.734204,33.5 c -8.364942,0 -8.422205,0.144117 -8.422205,21.19683 v 18.053973 l 8.327236,-0.437068 c 6.298708,-0.330598 9.195993,-0.97399 11.893539,-2.641164 z M 25.311999,69.247427 c 0,-0.688915 -1.702573,-5.751415 -3.783495,-11.25 C 19.447582,52.498842 17.125555,46.0875 16.368445,43.75 15.611334,41.4125 14.723887,39.5 14.39634,39.5 c -0.327547,0 -1.784598,3.2625 -3.237892,7.25 -1.4532971,3.9875 -4.0269571,10.9625 -5.7192471,15.5 l -3.0769,8.25 H 13.837152 c 8.525783,0 11.474847,-0.321914 11.474847,-1.252573 z"
     id="path4495" />
</svg>
